<?xml version="1.0" standalone="no"?>
<!DOCTYPE svg PUBLIC "-//W3C//DTD SVG 20010904//EN"
 "http://www.w3.org/TR/2001/REC-SVG-20010904/DTD/svg10.dtd">
<svg version="1.0" xmlns="http://www.w3.org/2000/svg"
 width="1024.000000pt" height="1024.000000pt" viewBox="0 0 1024.000000 1024.000000"
 preserveAspectRatio="xMidYMid meet">

<g transform="translate(0.000000,1024.000000) scale(0.100000,-0.100000)"
fill="#000000" stroke="none">
<path d="M6370 6940 c-394 -49 -708 -197 -970 -459 -136 -137 -226 -260 -314
-431 -390 -757 -212 -1748 399 -2225 213 -166 440 -263 731 -312 153 -25 540
-25 704 0 294 46 504 120 736 259 l104 62 0 421 c0 522 12 615 83 682 46 44
86 61 171 74 l76 11 0 79 0 79 -675 0 c-371 0 -678 0 -682 0 -5 0 -9 -40 -11
-88 l-3 -89 93 -6 c174 -12 263 -51 306 -132 39 -74 44 -130 49 -513 6 -417 3
-438 -60 -486 -168 -128 -600 -141 -887 -26 -134 53 -328 219 -428 367 -182
268 -276 669 -258 1103 29 722 336 1246 806 1371 96 25 281 35 380 20 164 -26
326 -99 450 -202 151 -126 263 -346 287 -564 l8 -70 110 -11 c61 -6 111 -10
111 -10 1 1 5 195 9 431 l7 430 -143 57 c-208 81 -390 132 -588 164 -115 18
-493 27 -601 14z"/>
<path d="M2180 6810 l0 -80 30 0 c46 0 133 -37 179 -76 53 -46 88 -114 101
-201 7 -46 10 -455 8 -1258 -4 -1315 -1 -1257 -67 -1350 -34 -48 -137 -105
-205 -112 l-46 -6 0 -83 0 -84 1200 0 c1136 0 1200 1 1200 18 0 9 16 213 35
452 23 304 30 437 23 441 -16 10 -156 22 -168 14 -5 -3 -10 -14 -10 -24 0 -34
-52 -175 -96 -261 -97 -189 -230 -299 -419 -347 -60 -15 -118 -18 -390 -18
-311 0 -321 1 -361 22 -57 31 -90 73 -103 133 -7 33 -11 245 -11 610 l0 560
253 0 c138 0 281 -5 316 -11 171 -27 272 -132 319 -329 l16 -70 83 0 83 0 0
515 0 515 -47 0 c-27 0 -64 3 -83 6 l-36 6 -13 -64 c-29 -141 -108 -247 -216
-287 -84 -31 -187 -41 -447 -41 l-228 0 0 620 0 620 364 0 c275 0 383 -4 439
-14 214 -41 345 -180 420 -445 21 -74 27 -85 48 -87 13 -1 55 -5 93 -8 l69 -6
-6 272 c-4 149 -7 331 -7 405 l0 133 -1160 0 -1160 0 0 -80z"/>
</g>
</svg>
